# xmcd
#
# Track frame offsets: 
#        150
#        13022
#        28727
#        39020
#        50295
#        68160
#        81525
#        88982
#        105980
#        119502
#        138535
#        148935
#        165542
#        178052
#        190895
#        204845
#        218860
#        231865
#        241742
#        253802
#        264267
#
# Disc length: 3688 seconds
#
# Revision: 4
# Processed by: cddbd v1.5.1PL2 Copyright (c) Steve Scherf et al.
# Submitted via: ExactAudioCopy v0.95b3
#
DISCID=290e6615
DTITLE=The Outlaws - Wanted!
DYEAR=1996
DGENRE=
TTITLE0=My Hero's Have Been Cowboys
TTITLE1=Honky Tonk Heros (Like Me)
TTITLE2=I'm Looking For Blue Eyes
TTITLE3=You Mean To Say
TTITLE4=Suspicous Minds
TTITLE5=A Good Hearted Women
TTITLE6=Heaven And Hell
TTITLE7=Me And Paul
TTITLE8=Yesterday's Wine
TTITLE9=T For Texas
TTITLE10=Put Another Log On The Fire
TTITLE11=Slow Movin' Outlaws
TTITLE12=(I'm A) Ramblin' Man
TTITLE13=IF She's Where You Feel Like Livin' (You Won't Feel At Home W
TTITLE13=ith Me)
TTITLE14=It's Not Easy
TTITLE15=Why You Been Gone So Long
TTITLE16=Under Your Spell Again
TTITLE17=I Ain't The One
TTITLE18=You Left A Long, Long Time Ago
TTITLE19=Healing Hands Of Time
TTITLE20=Nowhere Road
EXTD=Waylon Jennings, Willie Nelson,\nJessi Colter and Tompall Glaser
EXTT0=Waylon Jennings
EXTT1=Waylon Jennings
EXTT2=Jessi Colter
EXTT3=Jessi Colter
EXTT4=Waylon and Jessi
EXTT5=Waylon and Wille
EXTT6=Waylon and Wille
EXTT7=Wille Nelson
EXTT8=Wille Nelson
EXTT9=Tompall Glaser
EXTT10=Tompall Glaser
EXTT11=Waylon Jennings
EXTT12=Waylon Jennings
EXTT13=Jessi Colter
EXTT14=Jessi Colter
EXTT15=Jessi Colter
EXTT16=Waylon and Jessi
EXTT17=Waylon and Jessi
EXTT18=Willie Nelson
EXTT19=Willie Nelson
EXTT20=Waylon and Willie
PLAYORDER=
